<svg id="Layer_1" data-name="Layer 1" xmlns="http://www.w3.org/2000/svg" xmlns:xlink="http://www.w3.org/1999/xlink" viewBox="0 0 296.09057 381.31465"><defs><style>.cls-1{opacity:0.75;}.cls-2{fill:url(#linear-gradient);}.cls-3{fill:url(#linear-gradient-2);}</style><linearGradient id="linear-gradient" x1="211.38298" y1="153.84769" x2="164.33863" y2="474.44622" gradientTransform="translate(-163.88981 -126.68016) rotate(-4.33735)" gradientUnits="userSpaceOnUse"><stop offset="0" stop-color="#fff"/><stop offset="1" stop-color="#c3dee3"/></linearGradient><linearGradient id="linear-gradient-2" x1="351.9556" y1="161.9516" x2="323.35" y2="356.89346" xlink:href="#linear-gradient"/></defs><g class="cls-1"><polygon class="cls-2" points="3.337 339.431 58.52 335.246 90.582 11.898 35.399 16.084 3.337 339.431"/><path class="cls-3" d="M264.0606,93.39651c-6.63-6.919-10.91544-16.15952-12.7382-27.46431l-.43987-2.58475-.08738.00223A77.602,77.602,0,0,0,244.95809,45.938a65.05371,65.05371,0,0,0-30.9898-31.33854c-14.03913-6.93727-31.11124-9.7-50.74161-8.21112L132.01016,8.756l-5.32969,53.74869,31.72739-2.4064c8.02174-.60841,15.00708.73575,20.76193,3.99493A29.28063,29.28063,0,0,1,192.00235,79.098c.372.92331.71374,1.91179,1.075,3.1109l.04632.15365.0623.14745a37.37082,37.37082,0,0,0,11.85175,15.59086l3.03931,2.33089-2.9913,2.39228a66.62118,66.62118,0,0,0-15.728,18.22791l-.06194.10517-.05394.10985c-.63483,1.30549-1.2062,2.38644-1.7972,3.40218a47.909,47.909,0,0,1-15.47145,16.38912,45.00705,45.00705,0,0,1-21.24353,7.03487l-32.78184,2.48638L112.618,204.327l30.16207-2.28767c19.72238-1.49587,37.72114-6.92006,53.49566-16.12181A111.13118,111.13118,0,0,0,234.627,148.95548a113.25328,113.25328,0,0,0,10.8473-22.28636l1.16726-3.17873.06287.03107L247.98746,120.7a75.89518,75.89518,0,0,1,16.0021-23.081l2.1281-2.07592Z"/></g></svg>