<svg id="Layer_1" data-name="Layer 1" xmlns="http://www.w3.org/2000/svg" viewBox="0 0 296.09057 381.31465"><defs><style>.cls-1{fill:none;stroke:#fff;stroke-miterlimit:10;}</style></defs><polygon class="cls-1" points="51.968 49.578 112.684 40.217 105.549 371.165 44.833 380.526 51.968 49.578"/><path class="cls-1" d="M276.93235,84.38971l-.02683-.01109,0,.00133a81.19656,81.19656,0,0,0-8.15635-20.13189,68.5439,68.5439,0,0,0-34.79762-30.13763Q211.29041,25.01482,181.15334,29.66L147.725,34.814l-1.29555,60.09014,34.98-5.39324q11.0778-1.708,19.279,2.13236A26.2357,26.2357,0,0,1,213.22585,104.229c.48579.97978.912,2.00544,1.31132,3.052a40.74056,40.74056,0,0,0,14.20314,16.0692,69.33915,69.33915,0,0,0-15.02926,20.48358c-.46833,1.19914-.96534,2.38554-1.52517,3.54448a44.72521,44.72521,0,0,1-13.27456,16.45142,41.85024,41.85024,0,0,1-19.27839,8.07717l-34.98,5.39324-1.29551,60.08873,33.42838-5.154q30.13227-4.64583,53.34045-20.701A113.58587,113.58587,0,0,0,266.455,170.6566a115.80719,115.80719,0,0,0,9.34319-23.693l.05113.02072q5.83857-20.48763,19.99882-33.8381Q281.62268,103.99287,276.93235,84.38971Z"/></svg>