<svg id="Layer_1" data-name="Layer 1" xmlns="http://www.w3.org/2000/svg" viewBox="0 0 296.09057 381.31465"><defs><style>.cls-1{fill:#fff;}</style></defs><polygon class="cls-1" points="32.663 13.283 93.92 8.637 61.257 338.047 0 342.693 32.663 13.283"/><path class="cls-1" d="M254.26818,65.35763l-.0259-.01313-.00013.00132a81.19616,81.19616,0,0,0-6.57787-20.70146,68.54376,68.54376,0,0,0-32.36719-32.734Q193.40576,1.09247,163,3.39723l-33.7265,2.558L123.343,65.76605l35.29193-2.67675q11.17659-.8477,19.05684,3.61431a26.2357,26.2357,0,0,1,11.52846,13.51607c.4087,1.01435.75444,2.06986,1.0718,3.14409a40.74046,40.74046,0,0,0,12.92024,17.11769,69.33927,69.33927,0,0,0-16.56571,19.26223c-.5595,1.1594-1.14662,2.3039-1.79425,3.41616a44.72521,44.72521,0,0,1-14.505,15.37755,41.85036,41.85036,0,0,1-19.84439,6.56481L115.211,147.779l-5.93039,59.8094,33.7265-2.558q30.401-2.3058,54.77935-16.52138a113.586,113.586,0,0,0,39.37593-37.95072,115.8069,115.8069,0,0,0,11.14436-22.901l.04939.0246q7.40274-19.97577,22.55138-32.19324Q257.43117,85.26438,254.26818,65.35763Z"/></svg>