<svg id="Layer_1" data-name="Layer 1" xmlns="http://www.w3.org/2000/svg" viewBox="0 0 296.09057 381.31465"><defs><style>.cls-1{fill:none;stroke:#fff;stroke-miterlimit:10;}</style></defs><polygon class="cls-1" points="42.757 33.81 103.786 26.776 84.009 357.21 22.98 364.244 42.757 33.81"/><path class="cls-1" d="M266.2269,77.19383l-.02639-.0121-.00008.00132a81.19619,81.19619,0,0,0-7.381-20.42888A68.54385,68.54385,0,0,0,225.199,25.30872q-22.297-9.955-52.58954-6.465l-33.60092,3.87275-3.591,59.99673,35.16053-4.0525q11.135-1.28339,19.18341,2.86757A26.23574,26.23574,0,0,1,201.80876,94.584c.448.99763.83466,2.03883,1.19373,3.09985a40.74041,40.74041,0,0,0,13.57866,16.60024,69.33911,69.33911,0,0,0-15.80109,19.89427c-.51381,1.18036-1.0558,2.3469-1.65951,3.4836a44.72523,44.72523,0,0,1-13.89358,15.9321,41.85029,41.85029,0,0,1-19.573,7.33452l-35.16053,4.05251-3.59092,59.99532,33.60093-3.87275q30.2878-3.49089,54.09259-18.64736a113.58586,113.58586,0,0,0,37.86432-39.459,115.80706,115.80706,0,0,0,10.24182-23.31859l.05031.02266q6.61725-20.24955,21.27737-33.0491Q270.16464,96.96191,266.2269,77.19383Z"/></svg>