<svg id="Layer_1" data-name="Layer 1" xmlns="http://www.w3.org/2000/svg" viewBox="0 0 50 48"><path class="cls-1" d="M24.06405,1.56033h.70159c.28951.13423.58266.26119.868.40377Q35.45174,6.87,45.271,11.77374a3.35236,3.35236,0,0,1,1.50726,1.18753v1.40319A3.36394,3.36394,0,0,1,45.234,15.5724c-2.02512.99762-4.04174,2.01249-6.06108,3.02184-.13441.06719-.26427.14347-.44613.24275.18165.09988.29233.16572.40721.22315,2.03231,1.016,4.0619,2.03748,6.09985,3.042a3.34434,3.34434,0,0,1,1.54435,1.20767V24.713a3.35605,3.35605,0,0,1-1.54457,1.20734c-2.02429.99928-4.04142,2.01311-6.06074,3.02245-.1344.06719-.26426.14348-.44609.24275.18192.1.29247.1658.40722.22316,2.03231,1.016,4.06188,2.03747,6.09983,3.042a3.34423,3.34423,0,0,1,1.54435,1.20767v1.40319a5.40924,5.40924,0,0,1-1.048.93336Q35.56763,41.11525,25.38348,46.19275a2.03162,2.03162,0,0,1-1.9631-.012c-2.48558-1.26009-4.98137-2.50005-7.47387-3.74649q-6.40088-3.20091-12.80382-6.3977A1.96508,1.96508,0,0,1,2.07993,34.9894a1.74411,1.74411,0,0,1,.93354-2.23291c2.21518-1.11588,4.436-2.2205,6.65393-3.331.13348-.06683.26124-.14508.4433-.24689-.21523-.11193-.35536-.18728-.49761-.2584q-3.24951-1.62465-6.50064-3.246a1.916,1.916,0,0,1-1.04434-1.06435,1.7526,1.7526,0,0,1,.9743-2.21836q3.30467-1.66109,6.61543-3.31006c.135-.06759.26414-.14705.44735-.24978-.2041-.10833-.34173-.1851-.48252-.25557-2.15278-1.07759-4.30155-2.16335-6.46158-3.22622a1.78907,1.78907,0,0,1-.01381-3.36709Q9.14493,9.0031,15.13056,5.99923,19.594,3.77314,24.06405,1.56033ZM41.165,13.675c-.20237-.11272-.32335-.18637-.44958-.24952Q32.74757,9.43957,24.78159,5.45a.72373.72373,0,0,0-.731.00094Q16.06825,9.4553,8.078,13.4438c-.12067.06035-.23328.13681-.38732.22807.13361.07481.20736.12016.2845.15873q8.06574,4.033,16.12885,8.07134a.68272.68272,0,0,0,.69065-.03688q5.0279-2.52361,10.06145-5.03594C36.93076,15.79169,39.00553,14.75459,41.165,13.675ZM7.66035,24.0057c.17729.096.2647.14658.35486.19167q8.04353,4.02284,16.0844,8.051a.68389.68389,0,0,0,.69075-.03192q7.90374-3.96153,15.81243-7.91316c.164-.082.32675-.16646.54911-.27987-.13145-.08166-.19781-.13054-.27043-.16687-1.944-.97267-3.88518-1.95118-5.83934-2.903a.82685.82685,0,0,0-.63519.03556q-4.49232,2.2197-8.96581,4.47735a2.125,2.125,0,0,1-2.08035-.01279C20.39471,23.94836,17.413,22.474,14.442,20.97843a.7147.7147,0,0,0-.73122-.01094c-1.04912.54331-2.11138,1.06122-3.16791,1.59027C9.60768,23.026,8.67366,23.49658,7.66035,24.0057Zm.00284,10.342c.16077.09209.24271.14453.32924.1878Q16.0558,38.5677,24.1257,42.5868a.81931.81931,0,0,0,.63628-.02236q8.0136-3.98646,16.01327-8.001c.10941-.05477.2117-.12378.35974-.21121-.17685-.097-.29966-.16967-.427-.23337-1.85266-.92707-3.70883-1.84721-5.5559-2.78527a.75518.75518,0,0,0-.76913-.00239c-2.97043,1.49624-5.95348,2.96748-8.91944,4.47243a2.15764,2.15764,0,0,1-2.11979-.00934c-2.9652-1.50691-5.94428-2.98658-8.92411-4.46446a.7396.7396,0,0,0-.558-.06169C11.81751,32.26661,9.7848,33.28846,7.66319,34.34766Z"/></svg>