<svg id="Layer_1" data-name="Layer 1" xmlns="http://www.w3.org/2000/svg" viewBox="0 0 500 551.31132"><defs><style>.cls-1{fill:#ebf5f7;}</style></defs><path class="cls-1" d="M131.47492,410.25761,105.11256,107.41832H394.88744l-26.39752,302.791L249.82413,443.893Zm118.65153-243.5361H159.2412l.8687,9.96193,1.65493,18.83035.72791,8.35225H301.31348l-3.31015,38.03338H249.9972v.001H206.86363l.86881,9.96233,1.64318,18.83056.72752,8.35164h39.89578v-.00081h44.7729l-4.22824,48.16392-40.45924,11.17587v.01741l-.02449.00728-40.40073-11.17587-2.58223-29.62161H170.65572L175.738,355.9293l74.31011,21.12585.1757-.048v-.0164l74.22935-21.06188.5517-6.27294,6.16556-70.61181h.01488l8.90881-102.36071.8688-9.96193Z"/></svg>