<svg id="Layer_1" data-name="Layer 1" xmlns="http://www.w3.org/2000/svg" viewBox="0 0 500 551.31132"><defs><style>.cls-1{fill:#ebf5f7;}</style></defs><path class="cls-1" d="M252.15886,93.01956h-57.769a56.17207,56.17207,0,0,0-40.81934,17.947,63.83321,63.83321,0,0,0,.01611,86.55786,56.16977,56.16977,0,0,0,40.84888,17.93018,56.16933,56.16933,0,0,0-40.84888,17.93066,63.83179,63.83179,0,0,0,0,86.57422A56.16888,56.16888,0,0,0,194.425,337.88968a56.16839,56.16839,0,0,0-40.83838,17.92969,63.83178,63.83178,0,0,0,0,86.57421,55.49486,55.49486,0,0,0,81.69727,0,63.12078,63.12078,0,0,0,16.91992-43.28711V215.45462h-.04492Z"/><path class="cls-1" d="M350.82463,197.52444a63.8324,63.8324,0,0,0,0-86.5747,56.16883,56.16883,0,0,0-40.84888-17.93018H252.20744V215.45462h57.76831A56.16975,56.16975,0,0,0,350.82463,197.52444Z"/><path class="cls-1" d="M309.97575,215.45462a56.1696,56.1696,0,0,0-40.84863,17.93066,63.83246,63.83246,0,0,0,0,86.57422,55.49616,55.49616,0,0,0,81.69751,0,63.83179,63.83179,0,0,0,0-86.57422A56.16932,56.16932,0,0,0,309.97575,215.45462Z"/></svg>