<svg id="Layer_1" data-name="Layer 1" xmlns="http://www.w3.org/2000/svg" viewBox="0 0 500 551.31132"><defs><style>.cls-1{fill:#ebf5f7;}</style></defs><path class="cls-1" d="M249.99969,90.98682a168.05279,168.05279,0,0,1,67.18008,14.0571,175.252,175.252,0,0,1,56.95241,40.03089,185.59907,185.59907,0,0,1,38.05439,59.911,193.03484,193.03484,0,0,1,13.36291,70.66989c0,48.97746-18.49536,95.94846-51.4173,130.58084-32.92194,34.63184-77.57349,54.088-124.13249,54.088a168.05242,168.05242,0,0,1-67.1795-14.05727,175.24048,175.24048,0,0,1-56.95242-40.03074C92.94589,371.60412,74.4506,324.63312,74.4506,275.65566s18.49529-95.94846,51.41717-130.58085C158.78971,110.443,203.44127,90.98682,249.99969,90.98682Zm0,36.93377c-65.47945,0-120.4265,47.09083-136.05031,110.8013L285.10977,418.77431c60.5648-16.43582,105.32964-74.2369,105.32964-143.11865H298.27624V303.356h60.56427c-8.602,37.67243-34.4075,68.14308-68.28863,81.993L145.72336,232.99743c16.502-43.95118,56.878-74.97554,104.27633-74.97554,37.39231,0,70.22013,19.20555,90.93478,48.937L362.52732,187.384C336.89693,151.18886,296.16966,127.92059,249.99969,127.92059ZM109.56055,275.65566c0,39.18208,14.79595,76.75877,41.13383,104.46457,26.33733,27.70581,62.05858,43.27051,99.30531,43.27051C250.70227,423.39074,251.57993,423.39074,109.56055,275.65566Z"/></svg>