<svg id="Layer_1" data-name="Layer 1" xmlns="http://www.w3.org/2000/svg" viewBox="0 0 500 551.31132"><defs><style>.cls-1{fill:#ebf5f7;}</style></defs><path class="cls-1" d="M181.61815,230.591q-20.15748,0-20.16859,23.70616,0,22.09313,20.16859,22.09312,19.54006,0,19.52337-22.41573a28.16957,28.16957,0,0,0-4.472-16.008A17.70187,17.70187,0,0,0,181.61815,230.591Z"/><path class="cls-1" d="M74.80138,101.19165V451.6H425.19862V101.19165Zm207.13687,245.8165H243.25861V234.42893A106.97766,106.97766,0,0,1,231.7782,237.655c1.702,4.89475,3.0036,9.48914,3.0036,13.76092q0,20.50788-12.32586,35.70942a48.76677,48.76677,0,0,1-31.86037,18.0772q-12.81534,1.90229-12.81533,13.78317c0,2.75885,1.3683,5.54,4.14941,8.32106,3.63768,4.03818,8.944,6.619,15.99692,7.65361q45.80484,7.0918,45.777,38.12341,0,49.65945-59.28207,49.64832c-16.20829,0-29.65772-2.89235-40.10356-8.63257-13.23807-7.26425-20.0351-18.70016-20.0351-34.27435,0-17.92146,9.23327-30.22509,29.43524-36.833v-.62294c-7.29763-4.49426-10.546-11.32466-10.546-20.50233,0-11.95876,3.24833-19.43437,10.546-22.438v-.64522c-7.29763-2.33612-12.88209-7.67586-18.22182-15.99693A50.76362,50.76362,0,0,1,126.53,253.97454q0-23.07763,16.364-38.4349,15.68544-14.40057,37.456-14.40613a56.09421,56.09421,0,0,1,28.6899,7.67585c10.03424,0,21.70377-2.48075,34.241-7.36437v-6.708h38.67964V347.00815Zm-2.7255-176.29995c-4.39415,4.69451-9.55587,7.04177-15.5297,7.04177a20.90012,20.90012,0,0,1-15.86343-7.04177,23.645,23.645,0,0,1-6.56341-16.65327,23.91059,23.91059,0,0,1,6.56341-16.96475,20.87852,20.87852,0,0,1,15.86343-7.04176q8.92736,0,15.5297,7.04176a24.06393,24.06393,0,0,1,6.58565,16.96475A23.66583,23.66583,0,0,1,279.21275,170.7082ZM375.75054,340.734c-7.31987,4.30514-17.09826,6.42991-28.20043,6.42991-15.57419,0-26.07566-5.56222-32.04948-16.68665q-6.74139-12.44823-6.75253-39.36934V236.24221H289.6697V200.93327h19.0784V180.55332h34.53022c.178,5.02824.43385,15.72995.5451,20.37995h29.591V236.2422H343.86791v56.47872c0,14.29489,4.62777,21.459,14.05016,21.459,6.60791,0,12.0255-1.791,17.86584-5.43984v32.005h-.03337Z"/><path class="cls-1" d="M157.93424,377.92292q0,16.60323,28.16705,16.631,24.66285,0,24.65174-17.29849,0-16.33622-26.89887-16.34178Q157.92311,360.94707,157.93424,377.92292Z"/></svg>