<?xml version="1.0" encoding="utf-8"?>
<!-- Generator: Adobe Illustrator 25.4.1, SVG Export Plug-In . SVG Version: 6.00 Build 0)  -->
<svg version="1.1" id="Layer_1" xmlns="http://www.w3.org/2000/svg" xmlns:xlink="http://www.w3.org/1999/xlink" x="0px" y="0px"
	 viewBox="0 0 409.6 409.6" style="enable-background:new 0 0 409.6 409.6;" xml:space="preserve">
<style type="text/css">
	.st0{fill:#FFFFFF;}
</style>
<path class="st0" d="M409.6,219.6c-0.8,6.4-1.4,12.9-2.3,19.3c-3.9,28.5-13.9,55.9-29.4,80.2c-19.2,30.4-44.7,54.4-76.5,71.3
	c-9.8,5-19.9,9.4-30.2,13.3c-8.9,3.4-15.2-1.4-15.2-11.1c0-17.6,0.2-35.1,0.2-52.7c0-9.8-1.1-19.4-5.6-28.3c-2-4-4.8-7.5-7.3-11.4
	c7.1-1.3,14.5-2.3,21.7-3.9c20.3-4.7,38.4-13.3,51.6-30.2c9.6-12.3,14.6-26.5,17-41.6c2.2-12.5,2.5-25.2,1.1-37.8
	c-1.8-14.6-7.9-28.4-17.4-39.6c-2.1-2.5-2.3-4.4-1.4-7.4c4.9-16.5,3.1-32.6-2.9-48.4c-0.4-1.1-3-2.3-4.4-2.1
	c-6.5,1-13.4,1.6-19.4,4.1c-10.2,4.4-19.8,10.2-29.7,15.2c-2,1-4.3,1.4-6.6,1c-31.4-7.8-64.2-7.7-95.6,0c-2.1,0.4-4.3,0-6.2-1
	c-11.8-7.3-23.7-14.4-37.3-17.7c-4.3-0.9-8.6-1.4-13-1.7c-2-0.2-3.2,0.8-4,3c-5.6,16.3-7.2,32.6-1.9,49.3c0.4,1.4,0.1,3-0.8,4.2
	c-17.3,20.1-21.3,43.7-18.6,69.1c1.3,12.6,3.9,24.9,9.3,36.5c8.9,19.1,23.5,31.8,42.8,39.6c11.4,4.6,23.4,7.1,35.5,8.7
	c1.3,0.2,2.6,0.5,3.5,0.6c-2.8,4.9-5.7,9.5-8.2,14.4c-1.3,2.5-2.1,5.2-2.4,8c-0.4,4.2-2.6,6.1-6.5,7.3c-12.7,3.9-25.3,5.1-37.5-1.8
	c-6.5-3.8-11.8-9.2-15.6-15.7c-4.5-7.4-10-13.8-17.6-18.1c-5.9-3.3-12.1-5.7-19-4.3c-1.8,0.4-4,1.5-4.7,2.9c-0.5,1,1.1,3.3,2.2,4.6
	c1.1,1.3,2.5,2.5,4,3.3c11.8,7.2,18.7,18.3,23.8,30.7c8.1,19.7,23.6,28.8,44.1,30c8,0.5,16.1-0.8,24.6-1.2c0.2,0.5,0.3,1,0.3,1.5
	c0.1,10.2,0.4,20.5,0.3,30.7c0,10-6.5,14.3-16,10.9C87.5,385.1,49.2,352,24,304.2C6.1,270.8-1.7,232.9,1.5,195.2
	C7.1,126.3,39.2,72.7,97.2,35.5C138.3,9,184-1.1,232.3,6.4c83.9,13.1,139.4,61.1,167.6,140.9c5.3,14.8,7.9,30.3,9,46.1
	c0.2,1.3,0.4,2.6,0.7,3.9V219.6z"/>
</svg>
