<svg id="Layer_1" data-name="Layer 1" xmlns="http://www.w3.org/2000/svg" viewBox="0 0 500 551.31132"><defs><style>.cls-1{fill:#ebf5f7;}</style></defs><polygon class="cls-1" points="209.967 282.427 243.254 282.427 226.101 213.818 209.967 282.427"/><path class="cls-1" d="M75.34294,87.16334V453.06959H425.54948V87.16334ZM292.789,355.4607h-29.0332c-1.56128.02344-2.71533-.54687-3.30371-2.87842l-11.337-39.46679h-46.1405l-9.50452,39.895c-.49744,1.52246-.65613,2.35547-3.55249,2.45019l-27.40393.02344c-1.81006-.02344-1.92358-.7373-1.4707-2.18848l42.452-152.68066a36.10219,36.10219,0,0,0,.95032-13.72608c-.13574-1.61816-.11316-2.4746,1.47119-2.4746l40.21167.11865a.70991.70991,0,0,1,.76905.52392l47.95117,168.14405C295.18754,354.77125,295.02946,355.48414,292.789,355.4607Zm46.31519-1.02295a1.32429,1.32429,0,0,1-1.28955,1.35645H310.162a1.32471,1.32471,0,0,1-1.29016-1.35645V235.08619a1.32471,1.32471,0,0,1,1.29016-1.35644h27.65259a1.32429,1.32429,0,0,1,1.28955,1.35644ZM323.98893,217.60133A16.15331,16.15331,0,1,1,340.05546,201.448,16.10982,16.10982,0,0,1,323.98893,217.60133Z"/></svg>