<svg id="Layer_1" data-name="Layer 1" xmlns="http://www.w3.org/2000/svg" viewBox="0 0 500 551.31132"><defs><style>.cls-1{fill:#ebf5f7;}</style></defs><path class="cls-1" d="M258.04045,270.53194a59.85618,59.85618,0,0,0-4.658,24.79516c.38647,20.4712,10.9978,40.53638,37.991,38.43433V254.71871C278.03593,253.73921,264.40275,256.27144,258.04045,270.53194Z"/><path class="cls-1" d="M74.4506,92.23824v366.835H425.54948V92.23824ZM206.14982,358.03047a1.35309,1.35309,0,0,1-1.31811,1.38526H175.81608a1.35269,1.35269,0,0,1-1.31811-1.38526V191.656a1.35284,1.35284,0,0,1,1.31811-1.38525h29.01563a1.35324,1.35324,0,0,1,1.31811,1.38525Zm114.2627-4.32348c-2.77222,1.36157-5.99854,2.79467-7.93018,3.60717-9.67957,4.10865-20.72241,5.54175-31.08337,5.01612-36.01429-1.88672-61.12232-25.00952-60.57654-66.00025.4541-33.99121,13.83752-49.2312,28.35693-59.62182,17.60913-12.61255,35.40076-9.31641,39.55872-9.69873.22717-.02344,1.318.11987,1.318,0l.27234-38.12354,34.28772.69287v153.188l.52258,3.36841C326.32,350.38667,324.3433,351.77242,320.41252,353.707Z"/></svg>