<?xml version="1.0" encoding="utf-8"?>
<!-- Generator: Adobe Illustrator 25.4.1, SVG Export Plug-In . SVG Version: 6.00 Build 0)  -->
<svg version="1.1" id="Layer_1" xmlns="http://www.w3.org/2000/svg" xmlns:xlink="http://www.w3.org/1999/xlink" x="0px" y="0px"
	 viewBox="0 0 511 511" style="enable-background:new 0 0 511 511;" xml:space="preserve">
<style type="text/css">
	.st0{fill:#FFFFFF;}
</style>
<path class="st0" d="M511,151.3v205.3c-0.3,1.8-0.6,3.5-0.8,5.3c-1.1,10-1.6,20.2-3.3,30.1c-5.4,32-19.1,59.8-43.7,81.6
	c-26.6,23.6-58.7,33.1-93.4,35.4c-12,0.8-24.1,1.3-36.2,2H180.3c-3.1-0.3-6.2-0.7-9.4-0.8c-20.4-0.5-40.8-1.3-60.8-6.2
	c-42-10.3-73.2-34.2-91.8-73.5C6.8,406,3.3,379.7,3.1,353C2.5,298,2,243.1,2.2,188.2c0.1-25,0.4-50.2,5.8-74.8
	c9.6-43.7,33.4-76.4,74.2-95.8c24.1-11.5,50.1-14.9,76.5-15.5C229.1,0.4,299.4-0.4,369.8,3c20.5,1,40.5,5,59.3,13.5
	c46.7,21.2,71.2,58.7,78.9,108.3C509.4,133.6,510,142.5,511,151.3z M256.9,466l0-0.8c13.4,0,26.9,0.4,40.3-0.1
	c29-1,58.2-0.7,86.9-4.3c39.2-5,65.7-27.6,75.3-66.6c3.8-15.6,5.2-32.2,5.4-48.3c0.9-51.5,1.1-102.9,0.8-154.4
	c0-20.6-1.2-41.1-3.7-61.6c-5.2-41.1-30.7-68.9-71.4-77.1c-17.4-3.5-35.6-4.5-53.4-4.8c-47.5-0.7-94.9-0.8-142.4-0.3
	c-22.7,0.3-45.6,0.8-67.9,4.4C88.5,58.3,63,81,54.4,119.4c-3.9,17.2-4.9,35.2-5.3,52.8c-0.9,41.3-1.2,82.7-0.8,124
	c0.3,28.4,1.1,56.8,3.8,85c2.7,28.2,15.9,51.5,40.7,66.8c16.5,10.2,35,14.3,54.1,15C183.5,464.4,220.2,465,256.9,466z"/>
<path class="st0" d="M256.6,387.1c-72.6-0.5-131.3-59.5-130.8-131.5c0.5-72.6,59.6-131.2,131.6-130.6
	c72.8,0.7,131.2,59.7,130.4,131.7C387.1,329.3,328.5,387.5,256.6,387.1z M172,256c0,46.9,38.1,84.9,85,84.8
	c46.9,0,84.9-38.1,84.8-85s-38.1-84.9-85-84.8c0,0-0.1,0-0.1,0c-46.8,0-84.7,37.8-84.7,84.6C172,255.8,172,255.9,172,256z"/>
<path class="st0" d="M423.6,119.9c-0.1,16.9-13.8,30.5-30.6,30.4c-16.9-0.1-30.5-13.8-30.4-30.6c0.1-16.8,13.7-30.4,30.5-30.4
	c16.8-0.1,30.5,13.4,30.6,30.2C423.6,119.6,423.6,119.8,423.6,119.9z"/>
</svg>
