<svg id="Layer_1" data-name="Layer 1" xmlns="http://www.w3.org/2000/svg" viewBox="0 0 500 551.31132"><defs><style>.cls-1{fill:#ebf5f7;}</style></defs><path class="cls-1" d="M415.4633,101.205H84.74089a.09988.09988,0,0,0-.09692.10254V451.48405a.09973.09973,0,0,0,.09692.10254H415.4633a.09974.09974,0,0,0,.09693-.10254V101.30753A.09989.09989,0,0,0,415.4633,101.205ZM272.50945,352.35758c0,34.2168-18.74317,49.27246-46.53516,49.27246-25.20654,0-39.42529-13.68677-46.53516-30.11108l25.20655-14.37085c5.17065,8.89624,9.04882,17.1084,20.03613,17.1084,10.34106,0,16.8042-4.1062,16.8042-20.53052V240.12589h31.02344Zm73.03418,51.325c-29.08423,0-47.82764-14.37085-56.87574-33.53222l25.8523-15.74c6.46338,11.634,15.51221,19.84619,30.37695,19.84619,12.92676,0,21.32861-6.84375,21.32861-16.42408,0-10.94946-8.40185-15.0559-22.62109-21.89892l-7.75537-3.42212c-22.62158-10.26465-37.48706-22.583-37.48706-49.27246,0-24.63574,17.45093-43.79761,45.24243-43.79761,20.03613,0,34.25537,7.52783,43.9502,26.68921L363.64079,282.5546c-5.17065-10.26513-10.9873-14.37085-20.03613-14.37085-9.04858,0-14.86523,6.15894-14.86523,14.37085,0,9.58106,5.81665,13.687,19.38965,19.84644l7.75561,3.42163c26.49951,12.31763,41.3645,23.9519,41.3645,52.00976C397.24919,387.25846,375.27434,403.68253,345.54363,403.68253Z"/></svg>