<?xml version="1.0" encoding="utf-8"?>
<!-- Generator: Adobe Illustrator 25.4.1, SVG Export Plug-In . SVG Version: 6.00 Build 0)  -->
<svg version="1.1" id="Layer_1" xmlns="http://www.w3.org/2000/svg" xmlns:xlink="http://www.w3.org/1999/xlink" x="0px" y="0px"
	 viewBox="0 0 512 512" style="enable-background:new 0 0 512 512;" xml:space="preserve">
<style type="text/css">
	.st0{fill:#FFFFFF;}
</style>
<path class="st0" d="M240,0h32c1.3,0.4,2.5,0.6,3.8,0.8c39.9,3,77.2,14.4,111.2,35.4c66.1,40.7,106.8,99.2,121,175.7
	c1.7,9.3,2.6,18.7,3.9,28.1v32c-0.4,3.3-0.9,6.6-1.2,9.8c-5.5,50.6-23.8,96.1-56.1,135.4c-40.2,49-91.6,79.4-154,90.7
	c-9.5,1.7-19.1,2.7-28.6,4h-32c-6.2-0.8-12.5-1.4-18.7-2.3c-47.2-6.7-89.7-24.7-126.5-55c-48.9-40.2-79.4-91.6-90.8-154
	c-1.7-9.5-2.7-19.1-4-28.6v-32c0.4-3.3,0.9-6.6,1.2-9.8C7.1,175.9,27.6,128,63.8,87.1c39.8-45,89.3-72.9,148.6-83.2
	C221.5,2.3,230.8,1.3,240,0z M216.3,386.7h62.1v-6.1c0-24.7,0-49.3,0-74c0-10.2,0-20.3,0.4-30.5c0.4-11.1,6-19.7,14.7-26
	c17.8-13,41.6-5.2,47.7,15.9c1.9,7.1,2.8,14.4,2.7,21.7c0.3,31.2,0.1,62.3,0.1,93.5v5.5h62.1c0.1-1.9,0.2-3.5,0.2-5.1
	c0-33.5,0.1-67-0.1-100.5c0-7.3-0.5-14.6-1.4-21.9c-4.4-36.5-26.3-59.5-61.5-63.7c-25.5-3-47.1,4.7-62.3,26.5
	c-0.5,0.8-1.2,1.5-2.7,3.3v-25.7h-62.1V386.7z M119.6,199.3v187.3h62.1v-6.2c0-56,0-112,0-168c-0.1-2.8-0.1-5.7,0.1-8.5
	c0.4-3.8-1.2-4.8-4.8-4.7c-16.3,0.2-32.7,0.1-49,0.1C125.3,199.3,122.6,199.3,119.6,199.3z M115.7,141.6c0.1,19,14.7,32.4,35,32.2
	c20.4-0.2,35.3-13.9,35.1-32.4c-0.2-19.2-14.9-32.6-35.5-32.4C129.9,109.2,115.6,122.7,115.7,141.6L115.7,141.6z"/>
</svg>
