<svg id="Layer_1" data-name="Layer 1" xmlns="http://www.w3.org/2000/svg" viewBox="0 0 500 551.31132"><defs><style>.cls-1{fill:#ebf5f7;}</style></defs><path class="cls-1" d="M74.4506,96.7669V454.54424H425.54948V96.7669Zm110.03,208.977v53.08179H153.9445V194.11431c23.36694-2.65185,65.519-6.0476,83.55505,9.21143,12.90882,10.90942,18.35315,28.9602,18.35315,46.89429C255.8527,294.69512,222.00431,308.48882,184.48063,305.744Zm117.428,53.73267c-15.08691.16259-24.84192-3.32642-37.90967-10.188v-25.1687a2.543,2.543,0,0,1,.658-2.04712c.658-.67456,1.99634,0,1.99634,0,37.38794,23.959,67.15246.79077,36.52588-11.46753-21.55249-8.63013-39.18018-18.91138-39.18018-45.03345,0-35.07763,44.76074-41.59082,70.75952-28.14551,3.562,1.8606,4.90039,2.18628,4.90039,6.16407l.06836,16.72461c.02222,3.53564-.817,7.55957-5.92151,4.32641-8.41662-5.39673-28.42614-15.07324-35.6405-8.676-6.53381,5.76855-8.28088,17.21289,12.2959,25.26123A159.10936,159.10936,0,0,1,331.696,292.81036C357.58146,311.18682,350.57133,358.9649,301.90861,359.47662Z"/><path class="cls-1" d="M185.79655,216.58453a2.99251,2.99251,0,0,0-1.31592,1.34912v62.61889c17.78613,0,43.80786-.6748,42.33338-32.49584C225.52079,220.3294,211.11466,215.25884,185.79655,216.58453Z"/></svg>