<svg id="Layer_1" data-name="Layer 1" xmlns="http://www.w3.org/2000/svg" viewBox="0 0 500 551.31132"><defs><style>.cls-1{fill:#ebf5f7;}</style></defs><path class="cls-1" d="M252.161,315.14906c18.9332,0,34.28183-15.988,34.28183-35.71031S271.0942,243.72843,252.161,243.72843s-34.28184,15.988-34.28184,35.71032S233.2278,315.14906,252.161,315.14906Z"/><path class="cls-1" d="M382.36784,220.54829c-6.61579-2.50625-13.53257-5.012-20.74979-7.20493,1.80429-7.51768,3.30815-15.0359,4.511-22.24029,6.3148-41.34885-.60145-70.481-19.84739-81.75791a36.1843,36.1843,0,0,0-19.24594-5.012c-21.05025,0-47.81442,16.28891-74.879,43.54133-27.06462-27.25242-53.82824-43.54133-74.87849-43.54133a36.18305,36.18305,0,0,0-19.246,5.012c-19.24595,11.59018-26.16272,40.72234-19.84738,81.75791,1.20287,7.20439,2.70619,14.72261,4.5105,22.24029a203.89434,203.89434,0,0,0-20.74927,7.20493c-37.58995,15.0359-58.03878,35.71033-58.03878,58.89046S84.6569,323.2933,121.94613,338.3292c6.6158,2.50627,13.532,5.012,20.74927,7.20494-1.80431,7.51769-3.30763,15.0359-4.5105,22.24029-6.31534,41.34886.60143,70.4808,19.84738,81.75785a36.1845,36.1845,0,0,0,19.246,5.012c21.3507,0,48.11487-16.289,74.87849-43.54126,27.06461,27.25225,53.82878,43.54126,74.879,43.54126a36.18574,36.18574,0,0,0,19.24594-5.012c19.24594-11.59033,26.16219-40.72228,19.84739-81.75785-1.20288-7.20439-2.70674-14.7226-4.511-22.24029a203.90176,203.90176,0,0,0,20.74979-7.20494c37.58948-15.0359,58.03828-35.71031,58.03828-58.89045S419.95732,235.58419,382.36784,220.54829Zm-44.50625-95.54072c12.32917,7.51778,16.53922,30.69846,11.42728,63.58924a195.56292,195.56292,0,0,1-4.21,20.67443,343.97236,343.97236,0,0,0-49.61872-7.831A449.23461,449.23461,0,0,0,264.18543,160.718c22.25314-22.86739,44.80725-38.52963,63.15076-38.52963A19.68686,19.68686,0,0,1,337.86159,125.00757ZM304.18118,310.76368c-5.41292,10.02393-11.72825,20.04786-18.34406,30.07179-11.1263.93982-22.25312,1.25311-33.6804,1.25311-11.72773,0-22.85456-.31329-33.68041-1.25311q-9.9237-15.03589-18.04307-30.07179c-5.71338-10.33722-11.12629-20.98771-15.93779-31.32493,4.8115-10.33722,10.22441-20.98771,15.93779-31.32491,5.41292-10.02393,11.72827-20.04786,18.34406-30.0718,11.12629-.93984,22.25312-1.25312,33.68041-1.25312,11.72772,0,22.85455.31328,33.6804,1.25312q9.92368,15.03591,18.04307,30.0718c5.71337,10.3372,11.1263,20.98769,15.93779,31.32491C315.007,289.776,309.89455,300.11317,304.18118,310.76368Zm24.95933-10.33722c4.511,10.96377,8.11964,21.61426,11.42728,32.26422a318.46684,318.46684,0,0,1-32.47753,5.95181c3.60861-5.95181,7.51821-12.21636,10.82583-18.79473C322.52472,313.26937,325.83287,306.69154,329.14051,300.42646Zm-76.98379,84.89012c-7.21723-8.14424-14.13348-16.91559-20.74927-25.99967,6.91625.31328,13.833.62657,20.74927.62657,6.91678,0,13.833-.31329,20.74981-.62657C266.29072,368.401,259.374,377.17234,252.15672,385.31658ZM196.22319,338.3292a318.31822,318.31822,0,0,1-32.47754-5.95179c3.30817-10.33669,6.91678-21.30047,11.42728-32.26424,3.30816,6.2651,6.61579,12.84294,10.22441,19.108C189.006,326.11284,192.61458,332.06465,196.22319,338.3292ZM175.17293,258.451c-4.5105-10.96377-8.11911-21.61426-11.42728-32.26422a318.466,318.466,0,0,1,32.47754-5.95181c-3.60861,5.95181-7.51769,12.21636-10.82585,18.79474C181.78872,245.60812,178.48109,252.186,175.17293,258.451Zm76.98379-84.89013c7.21724,8.14478,14.134,16.91559,20.74981,25.99968-6.91678-.31328-13.833-.62656-20.74981-.62656-6.91625,0-13.833.31328-20.74927.62656C238.02324,190.4765,244.93949,181.70569,252.15672,173.56091ZM318.91609,239.343l-10.82583-18.79474a318.32166,318.32166,0,0,1,32.47753,5.95181c-3.30764,10.33668-6.91625,21.30046-11.42728,32.26423C325.83287,252.186,322.52472,245.60812,318.91609,239.343Zm-163.891-50.74622c-5.11247-32.89078-.90242-56.07146,11.42728-63.58924a19.68631,19.68631,0,0,1,10.52486-2.81921c18.04307,0,40.59718,15.349,63.15076,38.52963a409.36006,409.36006,0,0,0-31.27467,40.72229,393.61189,393.61189,0,0,0-49.61818,7.831C157.43084,202.0663,156.228,195.17519,155.0251,188.59681ZM80.74756,279.43875c0-14.72261,17.14092-30.38507,47.21293-41.97541a175.24043,175.24043,0,0,1,19.24595-6.57784A468.41742,468.41742,0,0,0,165.24951,279.752c-7.21723,16.6023-13.53258,32.89078-18.04307,48.55323C105.70715,315.77564,80.74756,296.98036,80.74756,279.43875Zm85.70482,154.4311c-12.3297-7.51771-16.53975-30.69837-11.42728-63.58917a195.42171,195.42171,0,0,1,4.21-20.67442,343.96543,343.96543,0,0,0,49.61818,7.831A449.32925,449.32925,0,0,0,240.128,398.15951c-22.25313,22.8674-44.8067,38.52985-63.15076,38.52985A19.685,19.685,0,0,1,166.45238,433.86985Zm182.83649-63.58917c5.11194,32.8908.90189,56.07146-11.42728,63.58917a19.68553,19.68553,0,0,1-10.5254,2.81951c-18.04307,0-40.59665-15.34918-63.15076-38.52985a409.28,409.28,0,0,0,31.27468-40.72228,393.61972,393.61972,0,0,0,49.61872-7.831C346.88312,356.81119,348.086,363.70231,349.28887,370.28068Zm27.06461-48.86652a175.23887,175.23887,0,0,1-19.24594,6.57784,468.42281,468.42281,0,0,0-18.04307-48.86654c7.21722-16.6023,13.532-32.89077,18.04307-48.55324,41.49906,12.52965,66.45841,31.32492,66.45841,48.86653C423.566,294.16136,406.12428,309.82383,376.35348,321.41416Z"/></svg>